<svg width="260" height="260" viewBox="0 0 260 260" fill="none" xmlns="http://www.w3.org/2000/svg">
<g clip-path="url(#clip0_16_718)">
<rect width="260" height="260" rx="130" fill="white"/>
<circle cx="130" cy="130" r="130" fill="#DEF4FF"/>
<path d="M130.337 32.706C131.975 33.096 133.613 33.278 135.277 33.122C143.493 32.42 171.443 32.108 183.507 58.732C197.703 90.14 205.425 98.642 195.519 135.146C185.613 171.65 193.517 170.272 198.639 188.862L198.795 189.408C201.551 199.418 193.439 209.09 183.065 208.232L163.227 206.542C161.797 206.412 160.341 206.516 158.937 206.802C147.653 209.142 93.7551 219.828 73.0851 214.42C66.0131 212.574 59.9551 210.338 54.9111 208.102C46.2791 204.28 43.5751 193.516 48.9311 185.742C51.1931 182.492 52.9611 178.93 53.3251 175.524C54.4171 165.02 47.1111 155.556 49.9971 137.746C54.8071 107.924 63.9331 110.68 65.5451 92.064C66.4811 81.404 82.5231 21.292 130.311 32.706H130.337Z" fill="#EB3F3A"/>
<path d="M130.337 32.706C131.975 33.096 133.613 33.278 135.277 33.122C143.493 32.42 171.443 32.108 183.507 58.732C197.703 90.14 205.425 98.642 195.519 135.146C185.613 171.65 193.517 170.272 198.639 188.862L198.795 189.408C201.551 199.418 193.439 209.09 183.065 208.232L163.227 206.542C161.797 206.412 160.341 206.516 158.937 206.802C147.653 209.142 93.7551 219.828 73.0851 214.42C66.0131 212.574 59.9551 210.338 54.9111 208.102C46.2791 204.28 43.5751 193.516 48.9311 185.742C51.1931 182.492 52.9611 178.93 53.3251 175.524C54.4171 165.02 47.1111 155.556 49.9971 137.746C54.8071 107.924 63.9331 110.68 65.5451 92.064C66.4811 81.404 82.5231 21.292 130.311 32.706H130.337Z" fill="#EB3F3A"/>
<path d="M233.454 228.279C211.926 221.025 158.132 193.179 158.132 193.179L154.804 167.751H107.692L104.65 193.179C104.65 193.179 50.8819 221.025 29.3279 228.279C7.77393 235.533 7.79993 272.297 7.79993 272.297H255.008C255.008 272.297 255.008 235.533 233.48 228.279H233.454Z" fill="#FFB69F"/>
<path d="M131.404 201.217C146.18 201.217 158.158 197.62 158.158 193.183C158.158 188.746 146.18 185.149 131.404 185.149C116.628 185.149 104.65 188.746 104.65 193.183C104.65 197.62 116.628 201.217 131.404 201.217Z" fill="#FFB69F"/>
<path d="M105.663 184.755C105.663 184.755 142.193 188.109 155.063 172.093V153.685L108.757 158.131L105.663 184.755V184.755Z" fill="#FF9988"/>
<path d="M133.588 175.136C163.039 175.136 186.914 144.614 186.914 106.964C186.914 69.3136 163.039 38.792 133.588 38.792C104.137 38.792 80.2622 69.3136 80.2622 106.964C80.2622 144.614 104.137 175.136 133.588 175.136Z" fill="#FFB69F"/>
<path d="M185.224 100.436C185.224 100.436 194.428 99.3179 195.26 108.08C196.092 116.842 193.154 123.576 187.694 126.488C187.694 126.488 186.524 127.06 183.846 127.528L185.224 100.462V100.436Z" fill="#FFB69F"/>
<path d="M81.3275 100.436C81.3275 100.436 72.1235 99.3179 71.2915 108.08C70.4595 116.842 73.3975 123.576 78.8575 126.488C78.8575 126.488 80.0275 127.06 82.7055 127.528L81.3275 100.462V100.436Z" fill="#FFB69F"/>
<path d="M80.2616 101.063C80.2616 101.063 76.3875 38.2986 133.588 39.0526V104.729L80.2616 101.063V101.063Z" fill="#FFB69F"/>
<path d="M186.888 101.063C186.888 101.063 190.762 38.2986 133.562 39.0526V104.729L186.888 101.063V101.063Z" fill="#FFB69F"/>
<path d="M97.0313 93.2896C105.819 91.7036 113.593 92.9516 117.545 93.7056C118.741 93.9396 119.937 93.3676 120.301 92.3796C120.717 91.2616 119.937 90.1176 118.585 89.8576C114.087 88.9996 106.001 87.6996 97.5253 90.6636C96.2253 91.1316 93.9113 92.4056 94.6133 93.4196C95.0033 93.7836 95.8613 93.4716 97.0313 93.2636V93.2896Z" fill="#EB3F3A"/>
<path d="M170.691 93.3166C161.903 91.7306 154.129 92.9786 150.177 93.7326C148.981 93.9666 147.785 93.3686 147.421 92.3806C147.005 91.2626 147.785 90.0926 149.137 89.8326C153.635 88.9486 161.721 87.6486 170.197 90.6646C171.497 91.1326 173.811 92.4066 173.109 93.4466C172.719 93.8106 171.861 93.4987 170.691 93.2907V93.3166Z" fill="#EB3F3A"/>
<path d="M158.783 112.422C160.52 112.422 161.929 109.977 161.929 106.962C161.929 103.946 160.52 101.502 158.783 101.502C157.045 101.502 155.637 103.946 155.637 106.962C155.637 109.977 157.045 112.422 158.783 112.422Z" fill="#441D39"/>
<path d="M111.592 111.305C113.329 111.305 114.738 108.86 114.738 105.845C114.738 102.829 113.329 100.385 111.592 100.385C109.854 100.385 108.446 102.829 108.446 105.845C108.446 108.86 109.854 111.305 111.592 111.305Z" fill="#441D39"/>
<path d="M137.254 131.508H132.288C130.078 131.508 128.128 130.65 127.088 129.22C126.334 128.206 126.126 127.01 126.49 125.84C127.634 122.096 128.596 118.534 128.596 118.534C128.778 117.832 129.506 117.442 130.182 117.624C130.884 117.806 131.3 118.534 131.092 119.21C131.092 119.21 130.13 122.824 128.96 126.594C128.856 126.984 128.908 127.322 129.168 127.686C129.714 128.414 130.936 128.908 132.288 128.908H137.254C137.982 128.908 138.554 129.48 138.554 130.208C138.554 130.936 137.982 131.508 137.254 131.508V131.508Z" fill="#FF9988"/>
<path d="M125.969 148.433C123.551 148.433 121.965 148.303 121.783 148.277C121.081 148.225 120.535 147.575 120.613 146.873C120.665 146.145 121.315 145.651 122.017 145.677C122.173 145.677 136.837 146.873 147.705 141.517C148.355 141.205 149.135 141.465 149.447 142.115C149.759 142.765 149.499 143.545 148.849 143.857C140.893 147.783 131.351 148.407 125.995 148.407L125.969 148.433Z" fill="#FF9988"/>
<path d="M161.382 120.977C166.394 120.977 170.456 120.046 170.456 118.897C170.456 117.749 166.394 116.817 161.382 116.817C156.371 116.817 152.308 117.749 152.308 118.897C152.308 120.046 156.371 120.977 161.382 120.977Z" fill="#FF9988"/>
<path d="M108.445 120.977C113.457 120.977 117.519 120.046 117.519 118.897C117.519 117.749 113.457 116.817 108.445 116.817C103.434 116.817 99.3712 117.749 99.3712 118.897C99.3712 120.046 103.434 120.977 108.445 120.977Z" fill="#FF9988"/>
<path d="M158.156 193.182C158.156 193.182 157.402 184.446 156.934 183.9C145.208 187.618 123.082 187.202 105.844 183.198C105.844 183.198 104.362 189.022 82.7044 204.284L50.7764 219.494L47.8384 272.3H212.002L206.542 217.206L158.182 193.182H158.156Z" fill="#1C2642"/>
<path d="M151.346 36.7921C151.268 36.6621 151.216 36.5061 151.138 36.4021C149.448 33.5941 123.422 32.4501 121.264 33.1261C119.522 33.6721 97.0839 46.5941 88.5559 51.5341C86.4499 52.7561 84.8379 54.6541 84.0059 56.9421L66.6899 103.898C66.2739 105.016 66.0659 106.212 66.0399 107.434L65.3639 202.126C65.3379 207.482 62.4519 211.018 67.7819 211.564L91.2339 214.242C96.3559 214.762 101.062 211.486 102.362 206.52L104.182 196.198C104.806 193.806 104.078 191.934 104.364 189.022C105.352 179.298 89.4919 156.86 91.7539 150.048C94.5619 141.572 98.4099 132.498 99.0859 121.006C99.7619 109.514 92.3259 89.2341 102.804 64.5861C111.228 44.7741 130.78 48.7261 138.112 51.0401C138.658 51.2221 139.23 51.3261 139.802 51.4041C139.802 51.4041 181.922 64.4561 183.014 111.308C183.014 111.308 184.73 113.96 185.822 110.84C193.336 89.1821 183.586 41.4461 151.32 36.8181L151.346 36.7921Z" fill="#EB3F3A"/>
<path d="M186.835 123.603C187.812 123.603 188.603 122.812 188.603 121.835C188.603 120.859 187.812 120.067 186.835 120.067C185.859 120.067 185.067 120.859 185.067 121.835C185.067 122.812 185.859 123.603 186.835 123.603Z" fill="white"/>
</g>
<defs>
<clipPath id="clip0_16_718">
<rect width="260" height="260" rx="130" fill="white"/>
</clipPath>
</defs>
</svg>
